<?xml version="1.0" encoding="UTF-8" standalone="no"?>
<!-- Created with Inkscape (http://www.inkscape.org/) -->

<svg
   xmlns:dc="http://purl.org/dc/elements/1.1/"
   xmlns:cc="http://creativecommons.org/ns#"
   xmlns:rdf="http://www.w3.org/1999/02/22-rdf-syntax-ns#"
   xmlns:svg="http://www.w3.org/2000/svg"
   xmlns="http://www.w3.org/2000/svg"
   xmlns:sodipodi="http://sodipodi.sourceforge.net/DTD/sodipodi-0.dtd"
   xmlns:inkscape="http://www.inkscape.org/namespaces/inkscape"
   width="826.03558"
   height="139.30324"
   id="svg3080"
   version="1.1"
   inkscape:version="0.91 r13725"
   inkscape:export-filename="D:\workspace\artool-logo\artool-text-right.png"
   inkscape:export-xdpi="1143.6899"
   inkscape:export-ydpi="1143.6899"
   sodipodi:docname="artool-text-right.svg">
  <defs
     id="defs3082" />
  <sodipodi:namedview
     id="base"
     pagecolor="#ffffff"
     bordercolor="#666666"
     borderopacity="1.0"
     inkscape:pageopacity="0.0"
     inkscape:pageshadow="2"
     inkscape:zoom="0.98994949"
     inkscape:cx="70.010581"
     inkscape:cy="100.15449"
     inkscape:document-units="px"
     inkscape:current-layer="layer1"
     showgrid="false"
     fit-margin-top="1"
     fit-margin-left="1"
     fit-margin-right="1"
     fit-margin-bottom="1"
     inkscape:window-width="1920"
     inkscape:window-height="1024"
     inkscape:window-x="1280"
     inkscape:window-y="28"
     inkscape:window-maximized="1" />
  <metadata
     id="metadata3085">
    <rdf:RDF>
      <cc:Work
         rdf:about="">
        <dc:format>image/svg+xml</dc:format>
        <dc:type
           rdf:resource="http://purl.org/dc/dcmitype/StillImage" />
        <dc:title />
      </cc:Work>
    </rdf:RDF>
  </metadata>
  <g
     inkscape:label="Layer 1"
     inkscape:groupmode="layer"
     id="layer1"
     transform="translate(42.458295,62.277125)">
    <g
       id="g3034"
       transform="matrix(0.99982073,0,0,0.99982073,-87.9995,-87.82776)"
       inkscape:export-filename="D:\workspace\artool-logo\artool-text-under.png"
       inkscape:export-xdpi="1143.6899"
       inkscape:export-ydpi="1143.6899"
       style="fill:#ffffff">
      <g
         id="g3026"
         style="fill:#ffffff">
        <path
           inkscape:connector-curvature="0"
           id="path3001"
           style="fill:#ffffff;fill-opacity:1;fill-rule:nonzero;stroke:none"
           d="m 142.00455,162.93539 c -18.745,-3.4325 -36.25,-10.7325 -53.2325,-22.1925 -13.72625,-9.2625 -27.2025,-22.68625 -36.3525,-36.20625 -2.535,-3.745 -5.87,-9.0525 -5.87,-9.34125 0,-0.3075 5.58125,-8.96875 7.6175,-11.81625 10.415,-14.555 26.01125,-28.90125 41.41125,-38.09 4.6975,-2.80375 14.01875,-7.48625 19.11125,-9.605 8.40375,-3.49625 19.565,-6.7625 28.93625,-8.47625 5.25375,-0.9625 5.62875,-0.875 1.80125,0.42 -8.16875,2.75875 -14.8825,6.50875 -22.29,12.45125 -5.65875,4.54 -11.93375,11.68875 -15.43,17.5675 -1.9725,3.31625 -5.805,11.3425 -6.7575,14.14125 -5.03875,14.82875 -5.04375,32.1925 -0.005,46.79125 1.52375,4.42375 4.775,11.1625 7.31875,15.19125 3.42375,5.42 9.98625,12.73875 15.17625,16.9375 6.61625,5.3425 13.09125,8.92625 21.63125,11.96875 1.83625,0.65875 3.0275,1.19125 2.64625,1.18625 -0.38625,-0.005 -2.95375,-0.425 -5.7125,-0.9275 z" />
        <path
           inkscape:connector-curvature="0"
           id="path3003"
           style="fill:#ffffff;fill-opacity:1;fill-rule:nonzero;stroke:none"
           d="m 191.89205,162.67664 c 6.47875,-2.305 11.5725,-4.84375 16.71875,-8.32125 12.00625,-8.11 21.5325,-20.16 26.645,-33.70125 6.52375,-17.275 6.11875,-36.425 -1.1275,-53.74 -3.155,-7.52375 -8.61875,-15.57625 -14.78,-21.7625 -8.17375,-8.2075 -17.34875,-13.98875 -27.78375,-17.515 -3.71125,-1.25375 -3.545,-1.36625 0.88375,-0.6 19.0475,3.29125 38.58875,11.09375 54.4825,21.7625 16.07375,10.78625 30.86875,25.99625 40.99125,42.14375 l 2.67125,4.2575 -1.44125,2.36875 c -5.96125,9.82875 -12.21125,17.72 -20.86875,26.3525 -8.38875,8.36875 -13.07125,12.21625 -21.9675,18.06625 -6.065,3.98875 -9.0825,5.7275 -15.5475,8.97 -8.58875,4.30625 -18.27625,7.885 -27.7725,10.26375 -3.8775,0.97125 -12.8525,2.69 -13.8925,2.66125 -0.3075,-0.005 0.9475,-0.5475 2.78875,-1.20625 z" />
        <path
           inkscape:connector-curvature="0"
           id="path3005"
           style="fill:#ffffff;fill-opacity:1;fill-rule:nonzero;stroke:none"
           d="m 221.40011,76.139322 c -0.16196,4.820764 -0.41028,8.226961 -0.62524,8.581998 -0.1947,0.327053 -3.53411,3.771128 -7.4197,7.660234 -5.579,5.586072 -7.07042,7.229439 -7.10309,7.827936 -0.0198,0.41632 -0.32058,1.88196 -0.66555,3.25807 -0.69827,2.78187 -0.68149,3.22061 0.16316,4.37044 1.22924,1.66605 3.61205,1.71986 5.42567,0.12321 l 1.01982,-0.89853 6.72286,3.01 c 3.6945,1.65933 6.73129,3.07969 6.74513,3.15085 0.0142,0.0777 -2.71186,2.68174 -6.05586,5.79321 -4.42479,4.10857 -6.31863,5.70009 -6.9319,5.81963 -0.46012,0.0896 -5.09994,0.15085 -10.30554,0.13765 -10.56135,-0.0316 -9.63239,-0.19184 -13.55255,2.38602 -2.7441,1.80169 -2.82106,1.89054 -2.91696,3.21823 -0.15674,2.23344 1.30597,3.74464 3.75942,3.88018 0.98424,0.0519 1.28227,0.20285 1.51533,0.75988 1.14139,2.72728 4.9786,13.07402 4.89355,13.20007 -0.16583,0.24636 -16.23697,-0.44502 -16.94929,-0.72933 -0.35568,-0.13976 -3.78704,-3.41257 -7.62549,-7.26727 -6.60059,-6.62605 -7.06223,-7.02911 -8.35723,-7.32367 -0.75533,-0.17153 -2.29099,-0.52503 -3.417,-0.78878 -2.27728,-0.53273 -3.05502,-0.46564 -4.05973,0.32685 -1.56485,1.23891 -1.57884,3.237 -0.0405,5.2161 l 0.902,1.1617 -2.9381,6.53572 c -1.61442,3.59153 -3.06799,6.55583 -3.22136,6.58566 -0.41221,0.0804 -11.4024,-11.78076 -11.53118,-12.44338 -0.0599,-0.31061 -0.12765,-4.95417 -0.15176,-10.32578 -0.0501,-10.82431 0.129,-9.80474 -2.39398,-13.67185 -1.75721,-2.69303 -1.85397,-2.78366 -3.15922,-2.94766 -2.23936,-0.28539 -3.82277,1.16586 -3.96901,3.63662 -0.0458,0.78574 -0.18259,1.43883 -0.30772,1.46314 -0.12485,0.0259 -3.21938,1.19758 -6.8746,2.60967 -3.65999,1.4135 -6.69426,2.53521 -6.74798,2.49466 -0.0845,-0.0581 0.42146,-15.23788 0.55405,-16.54723 0.0309,-0.27981 3.11904,-3.58096 6.87079,-7.33963 6.81647,-6.826098 8.0915,-8.272171 7.94697,-9.01577 -0.0423,-0.215905 0.22309,-1.590502 0.58177,-3.046961 0.74807,-3.010536 0.54913,-4.210912 -0.8651,-5.164812 -1.17267,-0.792058 -3.26296,-0.53977 -4.55245,0.556388 -0.53345,0.452614 -1.0926,0.799371 -1.24734,0.769651 -0.70216,-0.127096 -13.10875,-5.8131 -13.08963,-5.996316 0.013,-0.117113 2.72148,-2.737075 6.02611,-5.821822 3.80652,-3.555353 6.25882,-5.653062 6.69704,-5.72425 0.62718,-0.101263 17.79125,-0.239119 19.36046,-0.151949 0.44259,0.02357 1.7429,-0.657147 3.80691,-1.987897 2.74468,-1.77253 3.17235,-2.153643 3.43965,-3.032022 0.37324,-1.250447 0.22827,-2.048699 -0.58184,-3.144266 -0.6886,-0.93586 -1.65939,-1.323911 -3.2796,-1.313339 -0.57612,0.004 -1.06703,-0.06489 -1.08303,-0.147269 -0.0181,-0.08576 -1.1957,-3.184139 -2.62114,-6.881324 -1.42411,-3.698786 -2.55177,-6.786549 -2.50265,-6.861011 0.17396,-0.257953 16.81747,0.456957 17.23513,0.738702 0.23461,0.158047 3.45231,3.328685 7.14379,7.042522 6.12141,6.152531 7.90745,7.71547 8.66453,7.568303 0.14364,-0.02812 1.51809,0.237407 3.05754,0.583535 2.62305,0.595475 2.86885,0.602645 3.81616,0.103768 2.10392,-1.099117 2.34558,-3.897914 0.50978,-5.769514 l -0.86186,-0.876643 2.93199,-6.488678 c 1.61431,-3.572441 3.01682,-6.615948 3.11787,-6.764189 0.10348,-0.155191 2.81926,2.580702 6.03578,6.078757 l 5.84628,6.35499 -0.0209,9.385121 c -0.0108,5.165735 0.0817,9.91279 0.21137,10.553591 0.14862,0.737692 0.89891,2.193789 2.03476,3.942952 1.53003,2.348689 1.95472,2.817525 2.79101,3.077754 1.20214,0.373642 2.03031,0.231786 2.95281,-0.498976 0.99095,-0.784736 1.53627,-1.97562 1.50414,-3.287336 -0.0185,-0.841952 0.11773,-1.18694 0.54008,-1.368205 1.07803,-0.468015 12.78564,-4.902594 13.09253,-4.96183 0.42222,-0.08156 0.41662,-0.419378 0.11001,8.623667 z m -37.15657,9.983205 c -1.4397,-2.466842 -3.03432,-4.171304 -5.48312,-5.869109 -3.87751,-2.672982 -8.18769,-3.680298 -12.96235,-3.015794 -8.15143,1.131132 -14.40834,7.560641 -15.51611,15.933359 -0.25261,1.929878 -0.20131,2.73108 0.3446,5.539731 0.55149,2.836936 0.79657,3.560976 1.79686,5.326256 3.08599,5.43352 8.21148,8.79477 14.38456,9.43493 2.66839,0.2724 7.72458,-0.76543 10.1933,-2.0909 5.1413,-2.77447 8.92396,-8.26079 9.53241,-13.830458 0.29974,-2.709484 0.27666,-2.978783 -0.49938,-6.434192 -0.55843,-2.492985 -0.9246,-3.505475 -1.79075,-4.993804 z"
           inkscape:export-filename="D:\workspace\artool-logo\gif\logo-18.png"
           inkscape:export-xdpi="1143.6899"
           inkscape:export-ydpi="1143.6899" />
      </g>
    </g>
    <text
       xml:space="preserve"
       style="font-size:165.72137451px;font-style:normal;font-variant:normal;font-weight:normal;font-stretch:normal;line-height:125%;letter-spacing:0px;word-spacing:0px;fill:#ffffff;fill-opacity:1;stroke:none;font-family:Fira Sans;-inkscape-font-specification:Fira Sans;"
       x="203.89377"
       y="68.605904"
       id="text2985-7"
       sodipodi:linespacing="125%"
       transform="scale(1.0896715,0.91770777)"><tspan
         sodipodi:role="line"
         id="tspan2987-4"
         x="203.89377"
         y="68.605904"
         style="font-style:normal;font-variant:normal;font-weight:normal;font-stretch:normal;font-family:Dosis;-inkscape-font-specification:Dosis;fill:#ffffff;">ARTOOL</tspan></text>
  </g>
</svg>
